<?xml version="1.0" standalone="no"?>
<!DOCTYPE svg PUBLIC "-//W3C//DTD SVG 20010904//EN"
 "http://www.w3.org/TR/2001/REC-SVG-20010904/DTD/svg10.dtd">
<svg version="1.0" xmlns="http://www.w3.org/2000/svg"
 width="1100.000000pt" height="1100.000000pt" viewBox="0 0 1100.000000 1100.000000"
 preserveAspectRatio="xMidYMid meet">

<g transform="translate(0.000000,1100.000000) scale(0.100000,-0.100000)"
fill="#000000" stroke="none">
<path d="M0 5500 l0 -5500 5500 0 5500 0 0 5500 0 5500 -5500 0 -5500 0 0
-5500z m5684 5348 c18 -26 10 -41 -8 -15 -21 27 -38 21 -90 -35 l-48 -53 43
55 c63 80 77 86 103 48z m138 -175 c63 -76 161 -196 218 -268 57 -71 110 -138
118 -147 8 -10 13 -18 10 -18 -3 0 -85 98 -181 218 -96 119 -201 247 -232 285
-31 37 -54 67 -52 67 3 0 57 -62 119 -137z m-341 -5 c-65 -79 -123 -144 -105
-119 21 31 156 191 161 191 2 0 -23 -33 -56 -72z m195 -10 l29 -33 -31 28
c-17 15 -34 24 -39 20 -4 -5 -5 -2 -1 5 9 16 8 17 42 -20z m-107 -73 c-34 -42
-67 -79 -73 -82 -6 -4 11 20 38 53 65 77 89 104 93 104 3 0 -24 -34 -58 -75z
m161 10 c13 -14 21 -25 18 -25 -2 0 -15 11 -28 25 -13 14 -21 25 -18 25 2 0
15 -11 28 -25z m50 -60 c13 -14 21 -25 18 -25 -2 0 -15 11 -28 25 -13 14 -21
25 -18 25 2 0 15 -11 28 -25z m-466 -76 c-26 -33 -53 -63 -58 -67 -6 -3 7 16
28 44 54 68 68 84 73 84 2 0 -17 -27 -43 -61z m597 -86 c56 -71 109 -136 117
-145 8 -10 13 -18 10 -18 -3 0 -58 65 -122 145 -64 80 -114 145 -112 145 3 0
51 -57 107 -127z m-467 56 c-26 -33 -53 -63 -58 -67 -6 -3 7 16 28 44 54 68
68 84 73 84 2 0 -17 -27 -43 -61z m-255 -129 c-34 -44 -64 -80 -67 -80 -5 0
-4 2 67 93 29 37 55 67 57 67 3 0 -23 -36 -57 -80z m145 -11 c-26 -33 -53 -63
-58 -67 -6 -3 7 16 28 44 54 68 68 84 73 84 2 0 -17 -27 -43 -61z m857 -76
c13 -16 12 -17 -3 -4 -10 7 -18 15 -18 17 0 8 8 3 21 -13z m-1103 -49 c-18
-25 -37 -48 -43 -52 -5 -3 3 12 19 34 45 60 48 64 53 64 2 0 -11 -21 -29 -46z
m182 42 c0 -2 -8 -10 -17 -17 -16 -13 -17 -12 -4 4 13 16 21 21 21 13z m841
-88 c34 -46 67 -89 72 -95 5 -7 7 -13 4 -13 -2 0 -37 43 -76 95 -39 52 -69 95
-67 95 3 0 33 -37 67 -82z m110 55 c13 -16 12 -17 -3 -4 -10 7 -18 15 -18 17
0 8 8 3 21 -13z m-1013 -49 c-18 -25 -37 -48 -43 -52 -5 -3 3 12 19 34 45 60
48 64 53 64 2 0 -11 -21 -29 -46z m1043 9 c13 -16 12 -17 -3 -4 -10 7 -18 15
-18 17 0 8 8 3 21 -13z m39 -53 c12 -16 19 -30 16 -30 -2 0 -14 14 -26 30 -12
17 -19 30 -16 30 2 0 14 -13 26 -30z m-1300 -55 c-17 -25 -33 -45 -36 -45 -3
0 9 20 26 45 17 25 33 45 36 45 3 0 -9 -20 -26 -45z m140 -10 c-17 -25 -33
-45 -36 -45 -3 0 9 20 26 45 17 25 33 45 36 45 3 0 -9 -20 -26 -45z m1220 -20
c17 -25 29 -45 26 -45 -3 0 -19 20 -36 45 -17 25 -29 45 -26 45 3 0 19 -20 36
-45z m-130 -25 c12 -16 19 -30 16 -30 -2 0 -14 14 -26 30 -12 17 -19 30 -16
30 2 0 14 -13 26 -30z m-1286 -28 c-9 -16 -25 -39 -36 -53 l-20 -24 16 28 c28
48 48 77 53 77 2 0 -3 -13 -13 -28z m120 -37 c-9 -14 -18 -25 -21 -25 -5 0 5
18 20 38 17 22 18 13 1 -13z m1254 -62 c65 -98 80 -123 65 -108 -16 16 -134
195 -129 195 3 0 32 -39 64 -87z m-1314 -31 c-9 -16 -25 -39 -36 -53 l-20 -24
16 28 c28 48 48 77 53 77 2 0 -3 -13 -13 -28z m-155 -19 c-12 -21 -27 -42 -32
-48 -11 -11 9 29 31 63 24 37 25 25 1 -15z m1661 -23 c6 -11 8 -20 6 -20 -3 0
-10 9 -16 20 -6 11 -8 20 -6 20 3 0 10 -9 16 -20z m30 -50 c6 -11 8 -20 6 -20
-3 0 -10 9 -16 20 -6 11 -8 20 -6 20 3 0 10 -9 16 -20z m-1740 -10 c-6 -11
-13 -20 -16 -20 -2 0 0 9 6 20 6 11 13 20 16 20 2 0 0 -9 -6 -20z m140 0 c-6
-11 -13 -20 -16 -20 -2 0 0 9 6 20 6 11 13 20 16 20 2 0 0 -9 -6 -20z m1491
-45 l10 -20 -16 20 c-9 11 -21 29 -26 40 l-10 20 16 -20 c9 -11 21 -29 26 -40z
m-1661 -5 c-6 -11 -13 -20 -16 -20 -2 0 0 9 6 20 6 11 13 20 16 20 2 0 0 -9
-6 -20z m125 -27 c-15 -27 -32 -52 -38 -58 -6 -5 2 13 18 40 15 28 30 53 32
58 2 4 7 7 10 7 2 0 -7 -21 -22 -47z m1700 -3 c9 -16 13 -30 11 -30 -3 0 -12
14 -21 30 -9 17 -13 30 -11 30 3 0 12 -13 21 -30z m-135 -10 c6 -11 8 -20 6
-20 -3 0 -10 9 -16 20 -6 11 -8 20 -6 20 3 0 10 -9 16 -20z m-1755 -80 c-14
-27 -28 -50 -30 -50 -3 0 6 23 20 50 14 28 28 50 30 50 3 0 -6 -22 -20 -50z
m1785 30 c6 -11 8 -20 6 -20 -3 0 -10 9 -16 20 -6 11 -8 20 -6 20 3 0 10 -9
16 -20z m145 -10 c9 -16 13 -30 11 -30 -3 0 -12 14 -21 30 -9 17 -13 30 -11
30 3 0 12 -13 21 -30z m-1820 -70 c-14 -27 -28 -50 -30 -50 -3 0 6 23 20 50
14 28 28 50 30 50 3 0 -6 -22 -20 -50z m1710 20 c9 -16 13 -30 11 -30 -3 0
-12 14 -21 30 -9 17 -13 30 -11 30 3 0 12 -13 21 -30z m165 -50 c11 -22 18
-40 15 -40 -2 0 -14 18 -25 40 -11 22 -18 40 -15 40 2 0 14 -18 25 -40z m-105
-60 c14 -27 23 -50 20 -50 -2 0 -16 23 -30 50 -14 28 -23 50 -20 50 2 0 16
-22 30 -50z m-2009 -117 c-14 -26 -25 -45 -26 -41 0 12 43 98 48 94 2 -2 -8
-26 -22 -53z m2199 16 c9 -17 15 -33 13 -35 -3 -2 -12 12 -21 31 -21 43 -13
47 8 4z m-2084 -55 c-16 -33 -30 -56 -31 -52 0 11 53 118 58 114 2 -2 -10 -30
-27 -62z m1989 -28 c0 -12 -5 -7 -19 24 -11 24 -11 24 3 6 9 -11 16 -24 16
-30z m-2154 -43 c-8 -15 -15 -25 -16 -21 0 12 23 58 27 54 3 -2 -2 -17 -11
-33z m2343 -78 c0 -5 -11 10 -24 35 -13 25 -24 50 -24 55 0 6 11 -10 24 -35
13 -25 24 -49 24 -55z m-2233 28 c-8 -15 -15 -25 -16 -21 0 12 23 58 27 54 3
-2 -2 -17 -11 -33z m-150 -40 c-8 -15 -15 -25 -16 -21 0 12 23 58 27 54 3 -2
-2 -17 -11 -33z m2273 -38 c0 -5 -8 6 -19 25 -11 19 -19 40 -19 45 0 6 8 -6
19 -25 11 -19 19 -39 19 -45z m-2163 -12 c-8 -15 -15 -25 -16 -21 0 12 23 58
27 54 3 -2 -2 -17 -11 -33z m2313 -28 c0 -5 -6 1 -14 15 -8 14 -14 30 -14 35
0 6 6 -1 14 -15 8 -14 14 -29 14 -35z m-2448 18 c-12 -20 -14 -14 -5 12 4 9 9
14 11 11 3 -2 0 -13 -6 -23z m2338 -68 c0 -5 -6 1 -14 15 -8 14 -14 30 -14 35
0 6 6 -1 14 -15 8 -14 14 -29 14 -35z m-2358 18 c-12 -20 -14 -14 -5 12 4 9 9
14 11 11 3 -2 0 -13 -6 -23z m130 0 c-12 -20 -14 -14 -5 12 4 9 9 14 11 11 3
-2 0 -13 -6 -23z m2378 -58 c0 -5 -6 1 -14 15 -8 14 -14 30 -14 35 0 6 6 -1
14 -15 8 -14 14 -29 14 -35z m-2528 8 c-12 -20 -14 -14 -5 12 4 9 9 14 11 11
3 -2 0 -13 -6 -23z m130 0 c-12 -20 -14 -14 -5 12 4 9 9 14 11 11 3 -2 0 -13
-6 -23z m2288 -58 c0 -5 -6 1 -14 15 -8 14 -14 30 -14 35 0 6 6 -1 14 -15 8
-14 14 -29 14 -35z m-2438 8 c-12 -20 -14 -14 -5 12 4 9 9 14 11 11 3 -2 0
-13 -6 -23z m130 0 c-12 -20 -14 -14 -5 12 4 9 9 14 11 11 3 -2 0 -13 -6 -23z
m2439 -8 c0 -5 -5 -3 -10 5 -5 8 -10 20 -10 25 0 6 5 3 10 -5 5 -8 10 -19 10
-25z m-2459 -42 c-12 -20 -14 -14 -5 12 4 9 9 14 11 11 3 -2 0 -13 -6 -23z
m2349 -8 c0 -5 -5 -3 -10 5 -5 8 -10 20 -10 25 0 6 5 3 10 -5 5 -8 10 -19 10
-25z m130 0 c0 -5 -5 -3 -10 5 -5 8 -10 20 -10 25 0 6 5 3 10 -5 5 -8 10 -19
10 -25z m-2619 -22 c-12 -20 -14 -14 -5 12 4 9 9 14 11 11 3 -2 0 -13 -6 -23z
m2509 -28 c0 -5 -5 -3 -10 5 -5 8 -10 20 -10 25 0 6 5 3 10 -5 5 -8 10 -19 10
-25z m130 0 c0 -5 -5 -3 -10 5 -5 8 -10 20 -10 25 0 6 5 3 10 -5 5 -8 10 -19
10 -25z m-2529 -22 c-12 -20 -14 -14 -5 12 4 9 9 14 11 11 3 -2 0 -13 -6 -23z
m2419 -28 c0 -5 -5 -3 -10 5 -5 8 -10 20 -10 25 0 6 5 3 10 -5 5 -8 10 -19 10
-25z m130 0 c0 -5 -5 -3 -10 5 -5 8 -10 20 -10 25 0 6 5 3 10 -5 5 -8 10 -19
10 -25z m-2689 -2 c-12 -20 -14 -14 -5 12 4 9 9 14 11 11 3 -2 0 -13 -6 -23z
m2579 -48 c0 -5 -5 -3 -10 5 -5 8 -10 20 -10 25 0 6 5 3 10 -5 5 -8 10 -19 10
-25z m-2471 -14 c-6 -18 -13 -30 -15 -28 -2 2 1 18 7 36 6 18 13 30 15 28 2
-2 -1 -18 -7 -36z m2611 -16 c0 -5 -5 -3 -10 5 -5 8 -10 20 -10 25 0 6 5 3 10
-5 5 -8 10 -19 10 -25z m-110 -50 c0 -5 -5 -3 -10 5 -5 8 -10 20 -10 25 0 6 5
3 10 -5 5 -8 10 -19 10 -25z m140 -30 c0 -5 -5 -3 -10 5 -5 8 -10 20 -10 25 0
6 5 3 10 -5 5 -8 10 -19 10 -25z m-39 -242 c10 -31 19 -63 18 -72 0 -14 -38
83 -54 141 -11 43 15 -8 36 -69z m-2707 23 c-3 -15 -8 -25 -11 -23 -2 3 -1 17
3 31 3 15 8 25 11 23 2 -3 1 -17 -3 -31z m-130 -10 c-3 -15 -8 -25 -11 -23 -2
3 -1 17 3 31 3 15 8 25 11 23 2 -3 1 -17 -3 -31z m2985 -106 c0 -9 -4 -8 -9 5
-5 11 -9 27 -9 35 0 9 4 8 9 -5 5 -11 9 -27 9 -35z m-3012 18 c-3 -8 -6 -5 -6
6 -1 11 2 17 5 13 3 -3 4 -12 1 -19z m120 -20 c-3 -8 -6 -5 -6 6 -1 11 2 17 5
13 3 -3 4 -12 1 -19z m2782 -48 c0 -9 -4 -8 -9 5 -5 11 -9 27 -9 35 0 9 4 8 9
-5 5 -11 9 -27 9 -35z m-2922 -2 c-3 -8 -6 -5 -6 6 -1 11 2 17 5 13 3 -3 4
-12 1 -19z m117 -32 c-3 -15 -8 -25 -11 -23 -2 3 -1 17 3 31 3 15 8 25 11 23
2 -3 1 -17 -3 -31z m2945 -16 c0 -9 -4 -8 -9 5 -5 11 -9 27 -9 35 0 9 4 8 9
-5 5 -11 9 -27 9 -35z m-3082 -22 c-3 -8 -6 -5 -6 6 -1 11 2 17 5 13 3 -3 4
-12 1 -19z m120 -20 c-3 -8 -6 -5 -6 6 -1 11 2 17 5 13 3 -3 4 -12 1 -19z
m2982 -28 c0 -9 -4 -8 -9 5 -5 11 -9 27 -9 35 0 9 4 8 9 -5 5 -11 9 -27 9 -35z
m-3112 8 c-3 -8 -6 -5 -6 6 -1 11 2 17 5 13 3 -3 4 -12 1 -19z m117 -32 c-3
-15 -8 -25 -11 -23 -2 3 -1 17 3 31 3 15 8 25 11 23 2 -3 1 -17 -3 -31z m-127
-8 c-3 -8 -6 -5 -6 6 -1 11 2 17 5 13 3 -3 4 -12 1 -19z m3130 -10 c-3 -8 -6
-5 -6 6 -1 11 2 17 5 13 3 -3 4 -12 1 -19z m-3140 -30 c-3 -8 -6 -5 -6 6 -1
11 2 17 5 13 3 -3 4 -12 1 -19z m120 -10 c-3 -8 -6 -5 -6 6 -1 11 2 17 5 13 3
-3 4 -12 1 -19z m3030 0 c-3 -8 -6 -5 -6 6 -1 11 2 17 5 13 3 -3 4 -12 1 -19z
m-120 -10 c-3 -8 -6 -5 -6 6 -1 11 2 17 5 13 3 -3 4 -12 1 -19z m-3040 -20
c-3 -8 -6 -5 -6 6 -1 11 2 17 5 13 3 -3 4 -12 1 -19z m120 -10 c-3 -8 -6 -5
-6 6 -1 11 2 17 5 13 3 -3 4 -12 1 -19z m3062 -28 c0 -9 -4 -8 -9 5 -5 11 -9
27 -9 35 0 9 4 8 9 -5 5 -11 9 -27 9 -35z m-132 18 c-3 -8 -6 -5 -6 6 -1 11 2
17 5 13 3 -3 4 -12 1 -19z m-3060 -20 c-3 -8 -6 -5 -6 6 -1 11 2 17 5 13 3 -3
4 -12 1 -19z m120 -10 c-3 -8 -6 -5 -6 6 -1 11 2 17 5 13 3 -3 4 -12 1 -19z
m2950 -10 c-3 -8 -6 -5 -6 6 -1 11 2 17 5 13 3 -3 4 -12 1 -19z m-3080 -20
c-3 -8 -6 -5 -6 6 -1 11 2 17 5 13 3 -3 4 -12 1 -19z m3210 0 c-3 -8 -6 -5 -6
6 -1 11 2 17 5 13 3 -3 4 -12 1 -19z m-3090 -10 c-3 -8 -6 -5 -6 6 -1 11 2 17
5 13 3 -3 4 -12 1 -19z m2970 -10 c-3 -8 -6 -5 -6 6 -1 11 2 17 5 13 3 -3 4
-12 1 -19z m-3100 -20 c-3 -8 -6 -5 -6 6 -1 11 2 17 5 13 3 -3 4 -12 1 -19z
m3230 -10 c-3 -7 -5 -2 -5 12 0 14 2 19 5 13 2 -7 2 -19 0 -25z m-3110 -10
c-3 -7 -5 -2 -5 12 0 14 2 19 5 13 2 -7 2 -19 0 -25z m2990 0 c-3 -8 -6 -5 -6
6 -1 11 2 17 5 13 3 -3 4 -12 1 -19z m-3120 -30 c-3 -7 -5 -2 -5 12 0 14 2 19
5 13 2 -7 2 -19 0 -25z m3250 0 c-3 -8 -6 -5 -6 6 -1 11 2 17 5 13 3 -3 4 -12
1 -19z m-3130 -10 c-3 -8 -6 -5 -6 6 -1 11 2 17 5 13 3 -3 4 -12 1 -19z m3010
0 c-3 -8 -6 -5 -6 6 -1 11 2 17 5 13 3 -3 4 -12 1 -19z m-3140 -30 c-3 -8 -6
-5 -6 6 -1 11 2 17 5 13 3 -3 4 -12 1 -19z m3270 0 c-3 -8 -6 -5 -6 6 -1 11 2
17 5 13 3 -3 4 -12 1 -19z m-3150 -20 c-3 -7 -5 -2 -5 12 0 14 2 19 5 13 2 -7
2 -19 0 -25z m3030 0 c-3 -7 -5 -2 -5 12 0 14 2 19 5 13 2 -7 2 -19 0 -25z
m-3160 -30 c-3 -7 -5 -2 -5 12 0 14 2 19 5 13 2 -7 2 -19 0 -25z m3290 10 c-3
-8 -6 -5 -6 6 -1 11 2 17 5 13 3 -3 4 -12 1 -19z m-3170 -20 c-3 -8 -6 -5 -6
6 -1 11 2 17 5 13 3 -3 4 -12 1 -19z m3050 0 c-3 -8 -6 -5 -6 6 -1 11 2 17 5
13 3 -3 4 -12 1 -19z m130 -30 c-3 -7 -5 -2 -5 12 0 14 2 19 5 13 2 -7 2 -19
0 -25z m-3310 -10 c-3 -7 -5 -2 -5 12 0 14 2 19 5 13 2 -7 2 -19 0 -25z m120
-10 c-3 -7 -5 -2 -5 12 0 14 2 19 5 13 2 -7 2 -19 0 -25z m3070 0 c-3 -7 -5
-2 -5 12 0 14 2 19 5 13 2 -7 2 -19 0 -25z m130 -30 c-3 -7 -5 -2 -5 12 0 14
2 19 5 13 2 -7 2 -19 0 -25z m-3330 0 c-3 -8 -6 -5 -6 6 -1 11 2 17 5 13 3 -3
4 -12 1 -19z m120 -20 c-3 -7 -5 -2 -5 12 0 14 2 19 5 13 2 -7 2 -19 0 -25z
m3090 10 c-3 -8 -6 -5 -6 6 -1 11 2 17 5 13 3 -3 4 -12 1 -19z m130 -30 c-3
-8 -6 -5 -6 6 -1 11 2 17 5 13 3 -3 4 -12 1 -19z m-3350 -10 c-3 -8 -6 -5 -6
6 -1 11 2 17 5 13 3 -3 4 -12 1 -19z m120 -20 c-3 -7 -5 -2 -5 12 0 14 2 19 5
13 2 -7 2 -19 0 -25z m3110 10 c-3 -8 -6 -5 -6 6 -1 11 2 17 5 13 3 -3 4 -12
1 -19z m-3240 -45 c-3 -10 -5 -4 -5 12 0 17 2 24 5 18 2 -7 2 -21 0 -30z
m3370 5 c-3 -7 -5 -2 -5 12 0 14 2 19 5 13 2 -7 2 -19 0 -25z m-120 -10 c-3
-7 -5 -2 -5 12 0 14 2 19 5 13 2 -7 2 -19 0 -25z m-3130 -10 c-3 -7 -5 -2 -5
12 0 14 2 19 5 13 2 -7 2 -19 0 -25z m3260 -30 c-3 -7 -5 -2 -5 12 0 14 2 19
5 13 2 -7 2 -19 0 -25z m-3390 -10 c-3 -7 -5 -2 -5 12 0 14 2 19 5 13 2 -7 2
-19 0 -25z m3270 0 c-3 -7 -5 -2 -5 12 0 14 2 19 5 13 2 -7 2 -19 0 -25z
m-3150 -15 c-3 -10 -5 -4 -5 12 0 17 2 24 5 18 2 -7 2 -21 0 -30z m3280 -25
c-3 -7 -5 -2 -5 12 0 14 2 19 5 13 2 -7 2 -19 0 -25z m-3410 -15 c-3 -10 -5
-4 -5 12 0 17 2 24 5 18 2 -7 2 -21 0 -30z m3290 -5 c-3 -7 -5 -2 -5 12 0 14
2 19 5 13 2 -7 2 -19 0 -25z m-3170 -10 c-3 -7 -5 -2 -5 12 0 14 2 19 5 13 2
-7 2 -19 0 -25z m3300 -20 c-3 -7 -5 -2 -5 12 0 14 2 19 5 13 2 -7 2 -19 0
-25z m-3430 -20 c-3 -7 -5 -2 -5 12 0 14 2 19 5 13 2 -7 2 -19 0 -25z m3310 0
c-3 -7 -5 -2 -5 12 0 14 2 19 5 13 2 -7 2 -19 0 -25z m-3190 -15 c-3 -10 -5
-4 -5 12 0 17 2 24 5 18 2 -7 2 -21 0 -30z m3320 -25 c-3 -7 -5 -2 -5 12 0 14
2 19 5 13 2 -7 2 -19 0 -25z m-3450 -10 c-3 -7 -5 -2 -5 12 0 14 2 19 5 13 2
-7 2 -19 0 -25z m3330 0 c-3 -7 -5 -2 -5 12 0 14 2 19 5 13 2 -7 2 -19 0 -25z
m-3210 -20 c-3 -7 -5 -2 -5 12 0 14 2 19 5 13 2 -7 2 -19 0 -25z m3340 -20
c-3 -7 -5 -2 -5 12 0 14 2 19 5 13 2 -7 2 -19 0 -25z m-120 -10 c-3 -7 -5 -2
-5 12 0 14 2 19 5 13 2 -7 2 -19 0 -25z m-3350 -10 c-3 -7 -5 -2 -5 12 0 14 2
19 5 13 2 -7 2 -19 0 -25z m120 -10 c-3 -7 -5 -2 -5 12 0 14 2 19 5 13 2 -7 2
-19 0 -25z m3360 -25 c-3 -10 -5 -4 -5 12 0 17 2 24 5 18 2 -7 2 -21 0 -30z
m-120 -15 c-3 -7 -5 -2 -5 12 0 14 2 19 5 13 2 -7 2 -19 0 -25z m-3370 -10
c-3 -7 -5 -2 -5 12 0 14 2 19 5 13 2 -7 2 -19 0 -25z m120 -10 c-3 -7 -5 -2
-5 12 0 14 2 19 5 13 2 -7 2 -19 0 -25z m3380 -25 c-3 -10 -5 -4 -5 12 0 17 2
24 5 18 2 -7 2 -21 0 -30z m-120 -10 c-3 -10 -5 -4 -5 12 0 17 2 24 5 18 2 -7
2 -21 0 -30z m-3390 -15 c-3 -7 -5 -2 -5 12 0 14 2 19 5 13 2 -7 2 -19 0 -25z
m120 -10 c-3 -7 -5 -2 -5 12 0 14 2 19 5 13 2 -7 2 -19 0 -25z m3400 -25 c-3
-10 -5 -4 -5 12 0 17 2 24 5 18 2 -7 2 -21 0 -30z m-120 -10 c-3 -10 -5 -4 -5
12 0 17 2 24 5 18 2 -7 2 -21 0 -30z m-3410 -15 c-3 -7 -5 -2 -5 12 0 14 2 19
5 13 2 -7 2 -19 0 -25z m120 -10 c-3 -7 -5 -2 -5 12 0 14 2 19 5 13 2 -7 2
-19 0 -25z m3420 -20 c-3 -7 -5 -2 -5 12 0 14 2 19 5 13 2 -7 2 -19 0 -25z
m-120 -10 c-3 -7 -5 -2 -5 12 0 14 2 19 5 13 2 -7 2 -19 0 -25z m-3430 -20
c-3 -7 -5 -2 -5 12 0 14 2 19 5 13 2 -7 2 -19 0 -25z m120 -10 c-3 -7 -5 -2
-5 12 0 14 2 19 5 13 2 -7 2 -19 0 -25z m3451 -308 c-1 -168 -3 -276 -5 -240
-7 154 -7 567 -1 557 4 -7 7 -149 6 -317z m-131 278 c-3 -7 -5 -2 -5 12 0 14
2 19 5 13 2 -7 2 -19 0 -25z m-3450 -25 c-3 -10 -5 -2 -5 17 0 19 2 27 5 18 2
-10 2 -26 0 -35z m120 -15 c-3 -7 -5 -2 -5 12 0 14 2 19 5 13 2 -7 2 -19 0
-25z m3341 -238 c-2 -241 -6 -217 -10 57 -2 99 0 176 4 170 4 -7 7 -109 6
-227z m-3471 133 c-2 -16 -4 -3 -4 27 0 30 2 43 4 28 2 -16 2 -40 0 -55z m120
-10 c-2 -16 -4 -3 -4 27 0 30 2 43 4 28 2 -16 2 -40 0 -55z m-130 -120 c-2
-16 -4 -3 -4 27 0 30 2 43 4 28 2 -16 2 -40 0 -55z m120 -10 c-2 -16 -4 -3 -4
27 0 30 2 43 4 28 2 -16 2 -40 0 -55z m-130 -135 c-2 -18 -4 -4 -4 32 0 36 2
50 4 33 2 -18 2 -48 0 -65z m120 -10 c-2 -18 -4 -6 -4 27 0 33 2 48 4 33 2
-15 2 -42 0 -60z m-130 -170 c-2 -24 -4 -5 -4 42 0 47 2 66 4 43 2 -24 2 -62
0 -85z m120 -31 c-2 -23 -3 -1 -3 48 0 50 1 68 3 42 2 -26 2 -67 0 -90z m3370
-154 c-2 -32 -3 -6 -3 57 0 63 1 89 3 58 2 -32 2 -84 0 -115z m120 -30 c-2
-32 -3 -6 -3 57 0 63 1 89 3 58 2 -32 2 -84 0 -115z m-3634 -336 c-10 -10
-171 -168 -358 -349 l-340 -330 353 348 353 349 2 220 2 220 2 -219 c3 -198 2
-221 -14 -239z m134 116 c-1 -59 -3 -13 -3 102 0 116 2 164 3 108 2 -56 2
-151 0 -210z m3370 55 c-2 -18 -4 -4 -4 32 0 36 2 50 4 33 2 -18 2 -48 0 -65z
m-1480 60 c13 -16 25 -64 13 -52 -4 5 -10 18 -12 29 -2 10 -14 22 -28 26 -22
6 -23 7 -4 8 12 1 26 -5 31 -11z m1600 -80 c-2 -18 -4 -4 -4 32 0 36 2 50 4
33 2 -18 2 -48 0 -65z m-1664 75 c-7 -2 -21 -2 -30 0 -10 3 -4 5 12 5 17 0 24
-2 18 -5z m-70 -10 c-7 -2 -21 -2 -30 0 -10 3 -4 5 12 5 17 0 24 -2 18 -5z
m-60 -10 c-7 -2 -21 -2 -30 0 -10 3 -4 5 12 5 17 0 24 -2 18 -5z m-70 -10 c-7
-2 -21 -2 -30 0 -10 3 -4 5 12 5 17 0 24 -2 18 -5z m-60 -10 c-7 -2 -21 -2
-30 0 -10 3 -4 5 12 5 17 0 24 -2 18 -5z m-70 -10 c-7 -2 -21 -2 -30 0 -10 3
-4 5 12 5 17 0 24 -2 18 -5z m-60 -10 c-7 -2 -21 -2 -30 0 -10 3 -4 5 12 5 17
0 24 -2 18 -5z m-70 -10 c-7 -2 -21 -2 -30 0 -10 3 -4 5 12 5 17 0 24 -2 18
-5z m534 -235 c-1 -46 -3 -9 -3 82 0 91 2 128 3 83 2 -46 2 -120 0 -165z
m-604 225 c-19 -4 -37 -50 -144 -371 -67 -202 -123 -377 -125 -390 -1 -13 -5
-26 -8 -30 -20 -19 8 75 121 415 124 371 129 383 153 382 23 -2 23 -2 3 -6z
m437 -80 c-11 -17 -11 -17 -6 0 3 10 6 24 7 30 0 9 2 9 5 0 3 -7 0 -20 -6 -30z
m1627 -45 c-2 -18 -4 -6 -4 27 0 33 2 48 4 33 2 -15 2 -42 0 -60z m-1654 65
c-7 -2 -21 -2 -30 0 -10 3 -4 5 12 5 17 0 24 -2 18 -5z m1774 -30 c-3 -10 -5
-4 -5 12 0 17 2 24 5 18 2 -7 2 -21 0 -30z m-1834 20 c-7 -2 -21 -2 -30 0 -10
3 -4 5 12 5 17 0 24 -2 18 -5z m-70 -10 c-7 -2 -21 -2 -30 0 -10 3 -4 5 12 5
17 0 24 -2 18 -5z m-60 -10 c-7 -2 -21 -2 -30 0 -10 3 -4 5 12 5 17 0 24 -2
18 -5z m-70 -10 c-7 -2 -21 -2 -30 0 -10 3 -4 5 12 5 17 0 24 -2 18 -5z m-65
-10 c-10 -2 -18 -9 -18 -15 0 -6 -3 -9 -6 -5 -10 10 6 27 24 26 15 -1 15 -2 0
-6z m333 -20 c-12 -20 -14 -14 -5 12 4 9 9 14 11 11 3 -2 0 -13 -6 -23z m1794
-3 c10 -11 16 -20 13 -20 -3 0 -13 9 -23 20 -10 11 -16 20 -13 20 3 0 13 -9
23 -20z m-1814 -47 c-12 -20 -14 -14 -5 12 4 9 9 14 11 11 3 -2 0 -13 -6 -23z
m1879 -33 c23 -27 40 -50 37 -50 -3 0 -24 23 -47 50 -23 28 -40 50 -37 50 3 0
24 -22 47 -50z m-223 -22 c-2 -13 -4 -5 -4 17 -1 22 1 32 4 23 2 -10 2 -28 0
-40z m-3340 -80 c-2 -24 -4 -5 -4 42 0 47 2 66 4 43 2 -24 2 -62 0 -85z m1664
85 c-12 -20 -14 -14 -5 12 4 9 9 14 11 11 3 -2 0 -13 -6 -23z m107 -130 l-1
-88 -7 75 c-6 69 -4 100 6 100 2 0 3 -39 2 -87z m1559 35 c-2 -13 -4 -5 -4 17
-1 22 1 32 4 23 2 -10 2 -28 0 -40z m202 -43 c9 -12 -5 2 -31 30 l-47 50 -2
-35 c-2 -32 -2 -32 -6 -7 -3 16 -2 35 1 43 6 14 32 -11 85 -81z m121 45 c23
-27 40 -50 37 -50 -3 0 -24 23 -47 50 -23 28 -40 50 -37 50 3 0 24 -22 47 -50z
m-3772 -7 l-1 -38 -4 33 c-4 33 -7 31 -346 -300 -438 -427 -655 -636 -547
-525 144 147 885 866 893 866 4 1 6 -16 5 -36z m1733 -20 c-12 -20 -14 -14 -5
12 4 9 9 14 11 11 3 -2 0 -13 -6 -23z m130 0 c-12 -20 -14 -14 -5 12 4 9 9 14
11 11 3 -2 0 -13 -6 -23z m1576 -65 c-2 -13 -4 -5 -4 17 -1 22 1 32 4 23 2
-10 2 -28 0 -40z m-3310 -25 c-2 -16 -4 -5 -4 22 0 28 2 40 4 28 2 -13 2 -35
0 -50z m1584 40 c-12 -20 -14 -14 -5 12 4 9 9 14 11 11 3 -2 0 -13 -6 -23z
m130 0 c-12 -20 -14 -14 -5 12 4 9 9 14 11 11 3 -2 0 -13 -6 -23z m1716 -25
c-2 -13 -4 -5 -4 17 -1 22 1 32 4 23 2 -10 2 -28 0 -40z m-3550 -25 c-2 -16
-4 -5 -4 22 0 28 2 40 4 28 2 -13 2 -35 0 -50z m3853 17 c23 -27 40 -50 37
-50 -3 0 -24 23 -47 50 -23 28 -40 50 -37 50 3 0 24 -22 47 -50z m-94 -77
c154 -188 181 -223 139 -178 -50 54 -237 285 -231 285 2 0 44 -48 92 -107z
m-2075 60 c-12 -20 -14 -14 -5 12 4 9 9 14 11 11 3 -2 0 -13 -6 -23z m130 0
c-12 -20 -14 -14 -5 12 4 9 9 14 11 11 3 -2 0 -13 -6 -23z m1606 -30 c-3 -10
-5 -4 -5 12 0 17 2 24 5 18 2 -7 2 -21 0 -30z m120 -10 c-3 -10 -5 -4 -5 12 0
17 2 24 5 18 2 -7 2 -21 0 -30z m-1876 -10 c-12 -20 -14 -14 -5 12 4 9 9 14
11 11 3 -2 0 -13 -6 -23z m130 0 c-12 -20 -14 -14 -5 12 4 9 9 14 11 11 3 -2
0 -13 -6 -23z m-1664 -60 c-2 -16 -4 -5 -4 22 0 28 2 40 4 28 2 -13 2 -35 0
-50z m3929 -125 c87 -106 166 -203 177 -215 11 -13 18 -23 14 -23 -3 0 -65 73
-138 163 -73 89 -153 186 -177 215 -25 28 -42 52 -39 52 3 0 77 -87 163 -192z
m-4049 115 c-2 -16 -4 -5 -4 22 0 28 2 40 4 28 2 -13 2 -35 0 -50z m3400 20
c-3 -10 -5 -4 -5 12 0 17 2 24 5 18 2 -7 2 -21 0 -30z m-1766 0 c-12 -20 -14
-14 -5 12 4 9 9 14 11 11 3 -2 0 -13 -6 -23z m130 0 c-12 -20 -14 -14 -5 12 4
9 9 14 11 11 3 -2 0 -13 -6 -23z m1756 -10 c-3 -10 -5 -4 -5 12 0 17 2 24 5
18 2 -7 2 -21 0 -30z m-1906 -40 c-12 -20 -14 -14 -5 12 4 9 9 14 11 11 3 -2
0 -13 -6 -23z m1776 -10 c-3 -10 -5 -4 -5 12 0 17 2 24 5 18 2 -7 2 -21 0 -30z
m-1390 -606 c-1 -116 -2 -21 -2 213 0 234 1 329 2 213 2 -117 2 -309 0 -426z
m1510 596 c-3 -10 -5 -4 -5 12 0 17 2 24 5 18 2 -7 2 -21 0 -30z m-1776 0
c-12 -20 -14 -14 -5 12 4 9 9 14 11 11 3 -2 0 -13 -6 -23z m-1604 -35 c-2 -13
-4 -5 -4 17 -1 22 1 32 4 23 2 -10 2 -28 0 -40z m-120 -20 c-2 -13 -4 -5 -4
17 -1 22 1 32 4 23 2 -10 2 -28 0 -40z m1584 25 c-12 -20 -14 -14 -5 12 4 9 9
14 11 11 3 -2 0 -13 -6 -23z m120 -20 c-12 -20 -14 -14 -5 12 4 9 9 14 11 11
3 -2 0 -13 -6 -23z m1666 -5 c-3 -7 -5 -2 -5 12 0 14 2 19 5 13 2 -7 2 -19 0
-25z m120 -15 c-3 -10 -5 -4 -5 12 0 17 2 24 5 18 2 -7 2 -21 0 -30z m-1924
-50 c-8 -91 -13 -92 -13 -5 0 40 4 72 10 72 5 0 7 -27 3 -67z m-1436 -5 c-2
-13 -4 -5 -4 17 -1 22 1 32 4 23 2 -10 2 -28 0 -40z m3230 10 c-3 -7 -5 -2 -5
12 0 14 2 19 5 13 2 -7 2 -19 0 -25z m-3350 -25 c-3 -10 -5 -2 -5 17 0 19 2
27 5 18 2 -10 2 -26 0 -35z m1860 -586 c-1 -116 -2 -21 -2 213 0 234 1 329 2
212 2 -116 2 -308 0 -425z m1610 601 c-3 -7 -5 -2 -5 12 0 14 2 19 5 13 2 -7
2 -19 0 -25z m-1800 -15 c-3 -10 -5 -4 -5 12 0 17 2 24 5 18 2 -7 2 -21 0 -30z
m2283 -23 c23 -27 40 -50 37 -50 -3 0 -24 23 -47 50 -23 28 -40 50 -37 50 3 0
24 -22 47 -50z m-613 -2 c-3 -7 -5 -2 -5 12 0 14 2 19 5 13 2 -7 2 -19 0 -25z
m120 -10 c-3 -8 -6 -5 -6 6 -1 11 2 17 5 13 3 -3 4 -12 1 -19z m-3330 -35 c-3
-10 -5 -2 -5 17 0 19 2 27 5 18 2 -10 2 -26 0 -35z m-120 -10 c-3 -10 -5 -2
-5 17 0 19 2 27 5 18 2 -10 2 -26 0 -35z m3320 5 c-3 -7 -5 -2 -5 12 0 14 2
19 5 13 2 -7 2 -19 0 -25z m-2110 -60 c-2 -18 -4 -6 -4 27 0 33 2 48 4 33 2
-15 2 -42 0 -60z m-1989 65 c-1 -5 -86 -89 -187 -188 -129 -125 -184 -186
-183 -200 2 -19 1 -19 -6 -2 -6 16 28 54 183 208 104 104 192 189 193 189 2 0
2 -3 0 -7z m4219 -15 c-3 -8 -6 -5 -6 6 -1 11 2 17 5 13 3 -3 4 -12 1 -19z
m-2350 -70 c-2 -18 -4 -6 -4 27 0 33 2 48 4 33 2 -15 2 -42 0 -60z m2943 22
c23 -27 40 -50 37 -50 -3 0 -24 23 -47 50 -23 28 -40 50 -37 50 3 0 24 -22 47
-50z m-2363 -132 c-2 -35 -3 -9 -3 57 0 66 1 94 3 63 2 -32 2 -86 0 -120z
m1640 150 c-3 -8 -6 -5 -6 6 -1 11 2 17 5 13 3 -3 4 -12 1 -19z m-3180 -35
c-3 -10 -5 -2 -5 17 0 19 2 27 5 18 2 -10 2 -26 0 -35z m3300 15 c-3 -8 -6 -5
-6 6 -1 11 2 17 5 13 3 -3 4 -12 1 -19z m-3420 -35 c-3 -10 -5 -2 -5 17 0 19
2 27 5 18 2 -10 2 -26 0 -35z m1540 -135 c-2 -35 -3 -9 -3 57 0 66 1 94 3 63
2 -32 2 -86 0 -120z m1750 140 c-3 -8 -6 -5 -6 6 -1 11 2 17 5 13 3 -3 4 -12
1 -19z m120 -10 c-3 -8 -6 -5 -6 6 -1 11 2 17 5 13 3 -3 4 -12 1 -19z m874
-85 c35 -42 59 -74 53 -71 -6 4 -39 42 -75 85 -35 42 -59 74 -53 71 6 -4 39
-42 75 -85z m-4154 30 c-3 -10 -5 -2 -5 17 0 19 2 27 5 18 2 -10 2 -26 0 -35z
m3150 25 c-3 -8 -6 -5 -6 6 -1 11 2 17 5 13 3 -3 4 -12 1 -19z m-3270 -35 c-3
-10 -5 -2 -5 17 0 19 2 27 5 18 2 -10 2 -26 0 -35z m3390 15 c-3 -7 -5 -2 -5
12 0 14 2 19 5 13 2 -7 2 -19 0 -25z m713 -18 c23 -27 40 -50 37 -50 -3 0 -24
23 -47 50 -23 28 -40 50 -37 50 3 0 24 -22 47 -50z m-2903 -42 c-2 -18 -4 -6
-4 27 0 33 2 48 4 33 2 -15 2 -42 0 -60z m-120 -20 c-2 -18 -4 -6 -4 27 0 33
2 48 4 33 2 -15 2 -42 0 -60z m2180 60 c-3 -8 -6 -5 -6 6 -1 11 2 17 5 13 3
-3 4 -12 1 -19z m120 -20 c-3 -8 -6 -5 -6 6 -1 11 2 17 5 13 3 -3 4 -12 1 -19z
m-3250 -35 c-3 -10 -5 -2 -5 17 0 19 2 27 5 18 2 -10 2 -26 0 -35z m-120 -10
c-3 -10 -5 -2 -5 17 0 19 2 27 5 18 2 -10 2 -26 0 -35z m3240 25 c-3 -8 -6 -5
-6 6 -1 11 2 17 5 13 3 -3 4 -12 1 -19z m120 -20 c-3 -8 -6 -5 -6 6 -1 11 2
17 5 13 3 -3 4 -12 1 -19z m-130 -20 c-3 -8 -6 -5 -6 6 -1 11 2 17 5 13 3 -3
4 -12 1 -19z m953 -28 c23 -27 40 -50 37 -50 -3 0 -24 23 -47 50 -23 28 -40
50 -37 50 3 0 24 -22 47 -50z m-4053 -17 c-3 -10 -5 -2 -5 17 0 19 2 27 5 18
2 -10 2 -26 0 -35z m3217 13 c-3 -15 -8 -25 -11 -23 -2 3 -1 17 3 31 3 15 8
25 11 23 2 -3 1 -17 -3 -31z m-3337 -23 c-3 -10 -5 -2 -5 17 0 19 2 27 5 18 2
-10 2 -26 0 -35z m1190 -45 c-2 -18 -4 -6 -4 27 0 33 2 48 4 33 2 -15 2 -42 0
-60z m3173 32 c23 -27 40 -50 37 -50 -3 0 -24 23 -47 50 -23 28 -40 50 -37 50
3 0 24 -22 47 -50z m-3293 -52 c-2 -18 -4 -6 -4 27 0 33 2 48 4 33 2 -15 2
-42 0 -60z m2130 50 c-3 -8 -6 -5 -6 6 -1 11 2 17 5 13 3 -3 4 -12 1 -19z
m-3070 -45 c-3 -10 -5 -2 -5 17 0 19 2 27 5 18 2 -10 2 -26 0 -35z m3190 25
c-3 -8 -6 -5 -6 6 -1 11 2 17 5 13 3 -3 4 -12 1 -19z m-3310 -25 c-3 -10 -5
-4 -5 12 0 17 2 24 5 18 2 -7 2 -21 0 -30z m1630 -145 c-2 -35 -3 -7 -3 62 0
69 1 97 3 63 2 -35 2 -91 0 -125z m2623 122 c23 -27 40 -50 37 -50 -3 0 -24
23 -47 50 -23 28 -40 50 -37 50 3 0 24 -22 47 -50z m-2743 -152 c-2 -35 -3 -9
-3 57 0 66 1 94 3 63 2 -32 2 -86 0 -120z m1647 108 c-10 -31 -19 -54 -22 -52
-2 2 4 29 14 60 10 31 19 54 22 52 2 -2 -4 -29 -14 -60z m1277 -8 c-11 -11
-13 -10 -6 0 4 8 -2 24 -16 40 l-23 27 29 -27 c24 -23 27 -30 16 -40z m-4304
15 c-3 -10 -5 -4 -5 12 0 17 2 24 5 18 2 -7 2 -21 0 -30z m3157 3 c-3 -15 -8
-25 -11 -23 -2 3 -1 17 3 31 3 15 8 25 11 23 2 -3 1 -17 -3 -31z m-3277 -13
c-3 -10 -5 -4 -5 12 0 17 2 24 5 18 2 -7 2 -21 0 -30z m1180 -65 c-2 -18 -4
-6 -4 27 0 33 2 48 4 33 2 -15 2 -42 0 -60z m-120 -20 c-2 -18 -4 -6 -4 27 0
33 2 48 4 33 2 -15 2 -42 0 -60z m-930 35 c-3 -10 -5 -4 -5 12 0 17 2 24 5 18
2 -7 2 -21 0 -30z m4139 0 c-8 -15 -15 -25 -16 -21 0 12 23 58 27 54 3 -2 -2
-17 -11 -33z m-4259 -10 c-3 -10 -5 -4 -5 12 0 17 2 24 5 18 2 -7 2 -21 0 -30z
m-1168 -53 c0 -9 -4 -8 -9 5 -5 11 -9 27 -9 35 0 9 4 8 9 -5 5 -11 9 -27 9
-35z m5537 13 c-8 -15 -15 -25 -16 -21 0 12 23 58 27 54 3 -2 -2 -17 -11 -33z
m-5407 -23 c0 -9 -4 -8 -9 5 -5 11 -9 27 -9 35 0 9 4 8 9 -5 5 -11 9 -27 9
-35z m1168 8 c-3 -7 -5 -2 -5 12 0 14 2 19 5 13 2 -7 2 -19 0 -25z m-120 -10
c-3 -7 -5 -2 -5 12 0 14 2 19 5 13 2 -7 2 -19 0 -25z m3082 -7 c-6 -18 -13
-30 -15 -28 -2 2 1 18 7 36 6 18 13 30 15 28 2 -2 -1 -18 -7 -36z m1127 -8
c-8 -15 -15 -25 -16 -21 0 12 23 58 27 54 3 -2 -2 -17 -11 -33z m-3039 -65
c-2 -18 -4 -6 -4 27 0 33 2 48 4 33 2 -15 2 -42 0 -60z m-1040 25 c-3 -10 -5
-4 -5 12 0 17 2 24 5 18 2 -7 2 -21 0 -30z m920 -45 c-2 -18 -4 -6 -4 27 0 33
2 48 4 33 2 -15 2 -42 0 -60z m2142 43 c-6 -18 -13 -30 -15 -28 -2 2 1 18 7
36 6 18 13 30 15 28 2 -2 -1 -18 -7 -36z m-3182 -8 c-3 -10 -5 -4 -5 12 0 17
2 24 5 18 2 -7 2 -21 0 -30z m4299 -20 c-8 -15 -15 -25 -16 -21 0 12 23 58 27
54 3 -2 -2 -17 -11 -33z m-4169 -25 c-3 -7 -5 -2 -5 12 0 14 2 19 5 13 2 -7 2
-19 0 -25z m1470 -150 c-2 -35 -3 -7 -3 62 0 69 1 97 3 63 2 -35 2 -91 0 -125z
m1434 155 c-12 -20 -14 -14 -5 12 4 9 9 14 11 11 3 -2 0 -13 -6 -23z m-3024
-20 c-3 -10 -5 -4 -5 12 0 17 2 24 5 18 2 -7 2 -21 0 -30z m4134 -10 c-11 -21
-20 -35 -21 -31 0 12 33 78 38 74 2 -2 -6 -21 -17 -43z m-5282 -13 c0 -9 -4
-8 -9 5 -5 11 -9 27 -9 35 0 9 4 8 9 -5 5 -11 9 -27 9 -35z m130 -10 c0 -9 -4
-8 -9 5 -5 11 -9 27 -9 35 0 9 4 8 9 -5 5 -11 9 -27 9 -35z m2488 -142 c-2
-35 -3 -7 -3 62 0 69 1 97 3 63 2 -35 2 -91 0 -125z m1534 145 c-12 -20 -14
-14 -5 12 4 9 9 14 11 11 3 -2 0 -13 -6 -23z m130 0 c-12 -20 -14 -14 -5 12 4
9 9 14 11 11 3 -2 0 -13 -6 -23z m-3004 -15 c-3 -7 -5 -2 -5 12 0 14 2 19 5
13 2 -7 2 -19 0 -25z m4119 -5 c-8 -15 -15 -25 -16 -21 0 12 23 58 27 54 3 -2
-2 -17 -11 -33z m-4239 -5 c-3 -7 -5 -2 -5 12 0 14 2 19 5 13 2 -7 2 -19 0
-25z m1150 -50 c-2 -18 -4 -6 -4 27 0 33 2 48 4 33 2 -15 2 -42 0 -60z m-120
-20 c-2 -18 -4 -6 -4 27 0 33 2 48 4 33 2 -15 2 -42 0 -60z m1944 45 c-12 -20
-14 -14 -5 12 4 9 9 14 11 11 3 -2 0 -13 -6 -23z m130 0 c-12 -20 -14 -14 -5
12 4 9 9 14 11 11 3 -2 0 -13 -6 -23z m-2974 -25 c-3 -7 -5 -2 -5 12 0 14 2
19 5 13 2 -7 2 -19 0 -25z m3949 -5 c-8 -15 -15 -25 -16 -21 0 12 23 58 27 54
3 -2 -2 -17 -11 -33z m-4069 -5 c-3 -7 -5 -2 -5 12 0 14 2 19 5 13 2 -7 2 -19
0 -25z m2939 -25 c-8 -15 -15 -25 -16 -21 0 12 23 58 27 54 3 -2 -2 -17 -11
-33z m135 10 c-12 -20 -14 -14 -5 12 4 9 9 14 11 11 3 -2 0 -13 -6 -23z m1110
-20 c-11 -21 -20 -35 -21 -31 0 12 33 78 38 74 2 -2 -6 -21 -17 -43z m-5293
-63 c0 -8 -6 1 -13 20 -7 19 -13 42 -13 50 0 8 6 -1 13 -20 7 -19 13 -42 13
-50z m1239 48 c-3 -7 -5 -2 -5 12 0 14 2 19 5 13 2 -7 2 -19 0 -25z m-1118
-28 c0 -9 -4 -8 -9 5 -5 11 -9 27 -9 35 0 9 4 8 9 -5 5 -11 9 -27 9 -35z m998
18 c-3 -7 -5 -2 -5 12 0 14 2 19 5 13 2 -7 2 -19 0 -25z m3044 -5 c-12 -20
-14 -14 -5 12 4 9 9 14 11 11 3 -2 0 -13 -6 -23z m-1904 -65 c-2 -18 -4 -6 -4
27 0 33 2 48 4 33 2 -15 2 -42 0 -60z m2874 35 c-11 -21 -20 -35 -21 -31 0 12
33 78 38 74 2 -2 -6 -21 -17 -43z m-2058 -336 l102 -3 -107 -2 -108 -2 2 193
3 192 2 -187 3 -187 103 -4z m948 346 c-12 -20 -14 -14 -5 12 4 9 9 14 11 11
3 -2 0 -13 -6 -23z m-2774 -20 c-3 -10 -5 -4 -5 12 0 17 2 24 5 18 2 -7 2 -21
0 -30z m890 -45 c-2 -18 -4 -6 -4 27 0 33 2 48 4 33 2 -15 2 -42 0 -60z
m-1010 30 c-3 -7 -5 -2 -5 12 0 14 2 19 5 13 2 -7 2 -19 0 -25z m2869 -25 c-8
-15 -15 -25 -16 -21 0 12 23 58 27 54 3 -2 -2 -17 -11 -33z m135 10 c-12 -20
-14 -14 -5 12 4 9 9 14 11 11 3 -2 0 -13 -6 -23z m1105 -20 c-8 -15 -15 -25
-16 -21 0 12 23 58 27 54 3 -2 -2 -17 -11 -33z m-3979 -5 c-3 -7 -5 -2 -5 12
0 14 2 19 5 13 2 -7 2 -19 0 -25z m-120 -10 c-3 -7 -5 -2 -5 12 0 14 2 19 5
13 2 -7 2 -19 0 -25z m1550 -160 c-2 -35 -3 -9 -3 57 0 66 1 94 3 63 2 -32 2
-86 0 -120z m1419 135 c-8 -15 -15 -25 -16 -21 0 12 23 58 27 54 3 -2 -2 -17
-11 -33z m980 0 c-8 -15 -15 -25 -16 -21 0 12 23 58 27 54 3 -2 -2 -17 -11
-33z m-3819 -20 c-3 -10 -5 -4 -5 12 0 17 2 24 5 18 2 -7 2 -21 0 -30z m-1098
-23 c0 -9 -4 -8 -9 5 -5 11 -9 27 -9 35 0 9 4 8 9 -5 5 -11 9 -27 9 -35z m978
8 c-3 -7 -5 -2 -5 12 0 14 2 19 5 13 2 -7 2 -19 0 -25z m1120 -50 c-2 -18 -4
-6 -4 27 0 33 2 48 4 33 2 -15 2 -42 0 -60z m300 -90 c-2 -35 -3 -9 -3 57 0
66 1 94 3 63 2 -32 2 -86 0 -120z m280 -105 c-1 -54 -3 -12 -3 92 0 105 2 149
3 98 2 -51 2 -136 0 -190z m1109 240 c-8 -15 -15 -25 -16 -21 0 12 23 58 27
54 3 -2 -2 -17 -11 -33z m-3907 -23 c0 -9 -4 -8 -9 5 -5 11 -9 27 -9 35 0 9 4
8 9 -5 5 -11 9 -27 9 -35z m5147 13 c-8 -15 -15 -25 -16 -21 0 12 23 58 27 54
3 -2 -2 -17 -11 -33z m-3049 -55 c-2 -18 -4 -6 -4 27 0 33 2 48 4 33 2 -15 2
-42 0 -60z m1924 25 c-11 -21 -20 -35 -21 -31 0 12 33 78 38 74 2 -2 -6 -21
-17 -43z m-2794 5 c-3 -7 -5 -2 -5 12 0 14 2 19 5 13 2 -7 2 -19 0 -25z m-120
-15 c-3 -10 -5 -4 -5 12 0 17 2 24 5 18 2 -7 2 -21 0 -30z m3879 -20 c-8 -15
-15 -25 -16 -21 0 12 23 58 27 54 3 -2 -2 -17 -11 -33z m-1125 -30 c-11 -21
-20 -35 -21 -31 0 12 33 78 38 74 2 -2 -6 -21 -17 -43z m-2624 5 c-3 -7 -5 -2
-5 12 0 14 2 19 5 13 2 -7 2 -19 0 -25z m3864 -15 c-11 -21 -20 -35 -21 -31 0
12 33 78 38 74 2 -2 -6 -21 -17 -43z m-3984 5 c-3 -7 -5 -2 -5 12 0 14 2 19 5
13 2 -7 2 -19 0 -25z m1110 -80 c-2 -18 -4 -6 -4 27 0 33 2 48 4 33 2 -15 2
-42 0 -60z m1749 45 c-8 -15 -15 -25 -16 -21 0 12 23 58 27 54 3 -2 -2 -17
-11 -33z m-3807 -23 c0 -9 -4 -8 -9 5 -5 11 -9 27 -9 35 0 9 4 8 9 -5 5 -11 9
-27 9 -35z m1078 18 c-3 -7 -5 -2 -5 12 0 14 2 19 5 13 2 -7 2 -19 0 -25z
m-120 -10 c-3 -7 -5 -2 -5 12 0 14 2 19 5 13 2 -7 2 -19 0 -25z m979 -34 c-4
-9 -19 -13 -48 -12 l-43 1 43 4 c41 4 42 5 43 41 2 32 3 33 6 9 3 -16 2 -35
-1 -43z m2840 29 c-8 -15 -15 -25 -16 -21 0 12 23 58 27 54 3 -2 -2 -17 -11
-33z m-4897 -23 c0 -9 -4 -8 -9 5 -5 11 -9 27 -9 35 0 9 4 8 9 -5 5 -11 9 -27
9 -35z m1208 -17 c-3 -10 -5 -4 -5 12 0 17 2 24 5 18 2 -7 2 -21 0 -30z m2544
-29 c-16 -33 -30 -56 -31 -52 0 11 53 118 58 114 2 -2 -10 -30 -27 -62z m1250
9 c-11 -21 -20 -35 -21 -31 0 12 33 78 38 74 2 -2 -6 -21 -17 -43z m-3914 5
c-3 -7 -5 -2 -5 12 0 14 2 19 5 13 2 -7 2 -19 0 -25z m2784 -44 c-16 -33 -30
-56 -31 -52 0 11 53 118 58 114 2 -2 -10 -30 -27 -62z m-1933 49 c-10 -2 -28
-2 -40 0 -13 2 -5 4 17 4 22 1 32 -1 23 -4z m1220 0 c-10 -2 -28 -2 -40 0 -13
2 -5 4 17 4 22 1 32 -1 23 -4z m-1310 -10 c-10 -2 -28 -2 -40 0 -13 2 -5 4 17
4 22 1 32 -1 23 -4z m1375 0 c-7 -2 -21 -2 -30 0 -10 3 -4 5 12 5 17 0 24 -2
18 -5z m-2006 -35 c-3 -7 -5 -2 -5 12 0 14 2 19 5 13 2 -7 2 -19 0 -25z m556
25 c-7 -2 -21 -2 -30 0 -10 3 -4 5 12 5 17 0 24 -2 18 -5z m1510 0 c-7 -2 -21
-2 -30 0 -10 3 -4 5 12 5 17 0 24 -2 18 -5z m-2186 -35 c-3 -7 -5 -2 -5 12 0
14 2 19 5 13 2 -7 2 -19 0 -25z m606 25 c-7 -2 -21 -2 -30 0 -10 3 -4 5 12 5
17 0 24 -2 18 -5z m894 -175 c-2 -35 -3 -7 -3 62 0 69 1 97 3 63 2 -35 2 -91
0 -125z m730 176 c-3 -3 -12 -4 -19 -1 -8 3 -5 6 6 6 11 1 17 -2 13 -5z m1514
-41 c-11 -21 -20 -35 -21 -31 0 12 33 78 38 74 2 -2 -6 -21 -17 -43z m-3198
30 c-7 -2 -19 -2 -25 0 -7 3 -2 5 12 5 14 0 19 -2 13 -5z m1724 1 c-3 -3 -12
-4 -19 -1 -8 3 -5 6 6 6 11 1 17 -2 13 -5z m-1787 -14 c-34 -11 -60 -11 -35 0
11 5 29 8 40 8 16 0 15 -2 -5 -8z m607 -72 c-2 -18 -4 -6 -4 27 0 33 2 48 4
33 2 -15 2 -42 0 -60z m1226 75 c-7 -2 -19 -2 -25 0 -7 3 -2 5 12 5 14 0 19
-2 13 -5z m44 -9 c-3 -3 -12 -4 -19 -1 -8 3 -5 6 6 6 11 1 17 -2 13 -5z
m-3279 -84 c0 -8 -6 1 -13 20 -7 19 -13 42 -13 50 0 8 6 -1 13 -20 7 -19 13
-42 13 -50z m1049 48 c-3 -7 -5 -2 -5 12 0 14 2 19 5 13 2 -7 2 -19 0 -25z
m290 26 c-3 -3 -12 -4 -19 -1 -8 3 -5 6 6 6 11 1 17 -2 13 -5z m960 -166 c-2
-35 -3 -9 -3 57 0 66 1 94 3 63 2 -32 2 -86 0 -120z m-1012 152 c-11 -5 -27
-9 -35 -9 -9 0 -8 4 5 9 11 5 27 9 35 9 9 0 8 -4 -5 -9z m2062 4 c-3 -3 -12
-4 -19 -1 -8 3 -5 6 6 6 11 1 17 -2 13 -5z m1429 -31 c-8 -15 -15 -25 -16 -21
0 12 23 58 27 54 3 -2 -2 -17 -11 -33z m-4907 -23 c0 -9 -4 -8 -9 5 -5 11 -9
27 -9 35 0 9 4 8 9 -5 5 -11 9 -27 9 -35z m1058 18 c-3 -7 -5 -2 -5 12 0 14 2
19 5 13 2 -7 2 -19 0 -25z m2490 16 c-3 -3 -12 -4 -19 -1 -8 3 -5 6 6 6 11 1
17 -2 13 -5z m-1529 -41 c-1 -37 -1 -37 -5 -6 -4 29 -7 32 -46 36 l-42 4 48 1
47 2 -2 -37z m895 30 l-93 -4 0 -34 c0 -28 -9 -44 -47 -82 l-46 -48 41 56 c29
38 42 66 42 87 l0 32 98 -2 97 -2 -92 -3z m-1623 -13 c-8 -5 -19 -10 -25 -10
-5 0 -3 5 5 10 8 5 20 10 25 10 6 0 3 -5 -5 -10z m608 3 c-10 -2 -28 -2 -40 0
-13 2 -5 4 17 4 22 1 32 -1 23 -4z m1190 0 c-10 -2 -28 -2 -40 0 -13 2 -5 4
17 4 22 1 32 -1 23 -4z m-1878 -26 c10 -4 8 -6 -7 -6 -16 -1 -23 5 -23 17 0
10 3 13 8 6 4 -6 14 -14 22 -17z m598 16 c-10 -2 -28 -2 -40 0 -13 2 -5 4 17
4 22 1 32 -1 23 -4z m1355 0 c-7 -2 -21 -2 -30 0 -10 3 -4 5 12 5 17 0 24 -2
18 -5z m484 1 c-3 -3 -12 -4 -19 -1 -8 3 -5 6 6 6 11 1 17 -2 13 -5z m-2558
-104 c1 -44 -19 2 -24 57 l-5 48 14 -40 c8 -22 15 -51 15 -65z m644 93 c-7 -2
-21 -2 -30 0 -10 3 -4 5 12 5 17 0 24 -2 18 -5z m926 -38 c-18 -25 -40 -51
-48 -58 -8 -7 5 14 28 46 51 68 67 77 20 12z m572 38 l34 -7 -35 -6 c-26 -4
-36 -11 -41 -30 -6 -23 -7 -23 -8 -3 -1 12 4 25 10 29 8 4 7 9 -2 15 -17 11
-3 11 42 2z m1515 -30 c-8 -15 -15 -25 -16 -21 0 12 23 58 27 54 3 -2 -2 -17
-11 -33z m-3073 20 c-7 -2 -21 -2 -30 0 -10 3 -4 5 12 5 17 0 24 -2 18 -5z
m-66 -24 c1 -12 1 -20 0 -18 -2 2 -9 12 -16 22 -11 14 -11 17 1 17 7 0 14 -10
15 -21z m2152 -13 c-11 -23 -9 -31 11 -59 15 -20 17 -27 6 -18 -31 26 -39 50
-25 82 6 16 14 28 16 26 2 -3 -2 -16 -8 -31z m-2202 18 c-3 -3 -12 -4 -19 -1
-8 3 -5 6 6 6 11 1 17 -2 13 -5z m1878 -23 c33 -11 53 -20 45 -20 -8 0 -49 10
-90 24 -41 14 -61 22 -45 20 17 -3 57 -14 90 -24z m1426 -18 c-11 -21 -20 -35
-21 -31 0 12 33 78 38 74 2 -2 -6 -21 -17 -43z m-2714 -55 c-2 -18 -4 -6 -4
27 0 33 2 48 4 33 2 -15 2 -42 0 -60z m-772 42 c-3 -5 -14 -10 -23 -10 -15 0
-15 2 -2 10 20 13 33 13 25 0z m652 -72 c-2 -18 -4 -6 -4 27 0 33 2 48 4 33 2
-15 2 -42 0 -60z m2674 25 c-11 -21 -20 -35 -21 -31 0 12 33 78 38 74 2 -2 -6
-21 -17 -43z m-3388 25 c-12 -6 -25 -24 -29 -41 -6 -30 -42 -107 -50 -107 -5
0 8 32 22 55 7 11 16 37 19 57 4 22 14 39 24 41 30 8 36 6 14 -5z m-1264 -48
c0 -9 -4 -8 -9 5 -5 11 -9 27 -9 35 0 9 4 8 9 -5 5 -11 9 -27 9 -35z m3589 20
c13 -16 21 -30 19 -30 -2 0 -16 14 -30 30 -15 17 -23 30 -19 30 5 0 18 -13 30
-30z m-3459 -30 c0 -9 -4 -8 -9 5 -5 11 -9 27 -9 35 0 9 4 8 9 -5 5 -11 9 -27
9 -35z m1081 40 c-8 -5 -19 -10 -25 -10 -5 0 -3 5 5 10 8 5 20 10 25 10 6 0 3
-5 -5 -10z m1318 -20 c-22 -30 -35 -41 -22 -17 9 16 36 47 41 47 2 0 -6 -13
-19 -30z m-1838 -330 c-189 -193 -347 -353 -351 -355 -8 -6 -34 64 -26 71 3 3
8 -8 12 -25 4 -17 10 -31 14 -31 4 0 160 155 345 345 186 190 340 345 343 345
3 0 -149 -158 -337 -350z m2868 325 c-3 -3 -9 2 -12 12 -6 14 -5 15 5 6 7 -7
10 -15 7 -18z m-411 -7 c-3 -8 -6 -5 -6 6 -1 11 2 17 5 13 3 -3 4 -12 1 -19z
m1614 -25 c-11 -21 -20 -35 -21 -31 0 12 33 78 38 74 2 -2 -6 -21 -17 -43z
m-3621 -8 c-24 -25 -46 -45 -49 -45 -3 0 15 20 39 45 24 25 46 45 49 45 3 0
-15 -20 -39 -45z m370 36 c0 -5 -9 -19 -20 -32 l-20 -24 17 32 c19 34 23 39
23 24z m1125 -51 c-25 -33 -48 -60 -51 -60 -3 0 16 27 41 60 25 33 48 60 51
60 3 0 -16 -27 -41 -60z m1160 0 c25 -33 44 -60 41 -60 -3 0 -26 27 -51 60
-25 33 -44 60 -41 60 3 0 26 -27 51 -60z m-130 -30 c25 -33 44 -60 41 -60 -3
0 -26 27 -51 60 -25 33 -44 60 -41 60 3 0 26 -27 51 -60z m-1558 -42 c-2 -18
-4 -6 -4 27 0 33 2 48 4 33 2 -15 2 -42 0 -60z m2499 45 c-8 -15 -15 -25 -16
-21 0 12 23 58 27 54 3 -2 -2 -17 -11 -33z m-1449 5 c-3 -8 -6 -5 -6 6 -1 11
2 17 5 13 3 -3 4 -12 1 -19z m-1170 -70 c-2 -18 -4 -6 -4 27 0 33 2 48 4 33 2
-15 2 -42 0 -60z m-907 58 c0 -2 -8 -10 -17 -17 -16 -13 -17 -12 -4 4 13 16
21 21 21 13z m1306 -42 c-3 -8 -11 -14 -18 -13 -10 0 -10 2 0 6 6 2 13 17 13
31 1 18 3 21 6 9 3 -10 2 -25 -1 -33z m2330 -1 c-8 -15 -15 -25 -16 -21 0 12
23 58 27 54 3 -2 -2 -17 -11 -33z m-4658 -63 c0 -8 -6 1 -13 20 -7 19 -13 42
-13 50 0 8 6 -1 13 -20 7 -19 13 -42 13 -50z m121 20 c0 -9 -4 -8 -9 5 -5 11
-9 27 -9 35 0 9 4 8 9 -5 5 -11 9 -27 9 -35z m765 -62 c-498 -511 -634 -648
-647 -648 -21 0 -44 31 -51 70 l-6 35 15 -40 c17 -43 31 -56 52 -48 13 5 461
453 474 475 10 15 262 268 268 268 3 0 -44 -51 -105 -112z m1608 75 c-16 -21
-34 -48 -41 -60 -6 -13 -19 -23 -28 -23 -15 0 -15 1 -2 13 9 6 33 33 54 60 20
26 39 47 42 47 3 0 -9 -17 -25 -37z m615 15 c-3 -8 -6 -5 -6 6 -1 11 2 17 5
13 3 -3 4 -12 1 -19z m738 -49 c27 -35 45 -60 39 -57 -5 4 -32 35 -59 69 -27
35 -45 60 -39 57 5 -4 32 -35 59 -69z m-1572 44 c-7 -2 -19 -2 -25 0 -7 3 -2
5 12 5 14 0 19 -2 13 -5z m-50 -10 c-7 -2 -19 -2 -25 0 -7 3 -2 5 12 5 14 0
19 -2 13 -5z m1467 -33 c17 -22 29 -40 27 -40 -3 0 -20 18 -37 40 -17 22 -29
40 -27 40 3 0 20 -18 37 -40z m806 3 c-8 -15 -15 -25 -16 -21 0 12 23 58 27
54 3 -2 -2 -17 -11 -33z m-2323 20 c-7 -2 -19 -2 -25 0 -7 3 -2 5 12 5 14 0
19 -2 13 -5z m-50 -10 c-7 -2 -19 -2 -25 0 -7 3 -2 5 12 5 14 0 19 -2 13 -5z
m-46 -9 c-3 -3 -12 -4 -19 -1 -8 3 -5 6 6 6 11 1 17 -2 13 -5z m1040 -16 c-3
-8 -6 -5 -6 6 -1 11 2 17 5 13 3 -3 4 -12 1 -19z m1494 -25 c-11 -21 -20 -35
-21 -31 0 12 33 78 38 74 2 -2 -6 -21 -17 -43z m-2641 -91 l25 -13 -30 3 c-30
3 -30 4 -31 63 l-1 60 6 -50 c5 -39 11 -52 31 -63z m423 71 c-7 -2 -19 -2 -25
0 -7 3 -2 5 12 5 14 0 19 -2 13 -5z m1392 -64 c27 -35 45 -60 39 -57 -5 4 -32
35 -59 69 -27 35 -45 60 -39 57 5 -4 32 -35 59 -69z m671 34 c-8 -15 -15 -25
-16 -21 0 12 23 58 27 54 3 -2 -2 -17 -11 -33z m-2113 20 c-7 -2 -19 -2 -25 0
-7 3 -2 5 12 5 14 0 19 -2 13 -5z m-50 -10 c-7 -2 -19 -2 -25 0 -7 3 -2 5 12
5 14 0 19 -2 13 -5z m1662 -64 c27 -35 45 -60 39 -57 -5 4 -32 35 -59 69 -27
35 -45 60 -39 57 5 -4 32 -35 59 -69z m-1722 54 c-7 -2 -19 -2 -25 0 -7 3 -2
5 12 5 14 0 19 -2 13 -5z m-2064 -53 c0 -9 -4 -8 -9 5 -5 11 -9 27 -9 35 0 9
4 8 9 -5 5 -11 9 -27 9 -35z m2014 43 c-7 -2 -19 -2 -25 0 -7 3 -2 5 12 5 14
0 19 -2 13 -5z m-50 -10 c-7 -2 -19 -2 -25 0 -7 3 -2 5 12 5 14 0 19 -2 13 -5z
m2428 -40 c-11 -21 -20 -35 -21 -31 0 12 33 78 38 74 2 -2 -6 -21 -17 -43z
m-4512 -13 c0 -9 -4 -8 -9 5 -5 11 -9 27 -9 35 0 9 4 8 9 -5 5 -11 9 -27 9
-35z m2034 43 c-7 -2 -19 -2 -25 0 -7 3 -2 5 12 5 14 0 19 -2 13 -5z m-50 -10
c-7 -2 -19 -2 -25 0 -7 3 -2 5 12 5 14 0 19 -2 13 -5z m2368 -80 c-11 -21 -20
-35 -21 -31 0 12 33 78 38 74 2 -2 -6 -21 -17 -43z m-506 -54 c27 -35 45 -60
39 -57 -5 4 -32 35 -59 69 -27 35 -45 60 -39 57 5 -4 32 -35 59 -69z m170 -20
c27 -35 45 -60 39 -57 -5 4 -32 35 -59 69 -27 35 -45 60 -39 57 5 -4 32 -35
59 -69z m446 24 c-11 -21 -20 -35 -21 -31 0 12 33 78 38 74 2 -2 -6 -21 -17
-43z m-4292 -43 c0 -9 -4 -8 -9 5 -5 11 -9 27 -9 35 0 9 4 8 9 -5 5 -11 9 -27
9 -35z m-120 -20 c0 -9 -4 -8 -9 5 -5 11 -9 27 -9 35 0 9 4 8 9 -5 5 -11 9
-27 9 -35z m4257 13 c-8 -15 -15 -25 -16 -21 0 12 23 58 27 54 3 -2 -2 -17
-11 -33z m-3486 -6 c0 -2 -10 -12 -22 -23 l-23 -19 19 23 c18 21 26 27 26 19z
m3596 -44 c-8 -15 -15 -25 -16 -21 0 12 23 58 27 54 3 -2 -2 -17 -11 -33z
m-461 -44 c27 -35 45 -60 39 -57 -5 4 -32 35 -59 69 -27 35 -45 60 -39 57 5
-4 32 -35 59 -69z m-2420 41 c3 -6 -1 -7 -9 -4 -18 7 -21 14 -7 14 6 0 13 -4
16 -10z m2590 -61 c27 -35 45 -60 39 -57 -5 4 -32 35 -59 69 -27 35 -45 60
-39 57 5 -4 32 -35 59 -69z m136 14 c-11 -21 -20 -35 -21 -31 0 12 33 78 38
74 2 -2 -6 -21 -17 -43z m-2704 -15 c-3 -7 -5 -2 -5 12 0 14 2 19 5 13 2 -7 2
-19 0 -25z m2814 -35 c-11 -21 -20 -35 -21 -31 0 12 33 78 38 74 2 -2 -6 -21
-17 -43z m-4272 -23 c0 -9 -4 -8 -9 5 -5 11 -9 27 -9 35 0 9 4 8 9 -5 5 -11 9
-27 9 -35z m1468 -2 c-3 -8 -6 -5 -6 6 -1 11 2 17 5 13 3 -3 4 -12 1 -19z
m2458 -8 c10 -11 16 -20 13 -20 -3 0 -13 9 -23 20 -10 11 -16 20 -13 20 3 0
13 -9 23 -20z m193 -15 l-14 -26 -19 23 c-11 13 -13 17 -5 11 20 -18 28 -16
35 8 4 11 9 18 12 16 2 -3 -2 -17 -9 -32z m-2908 2 c0 -1 -24 -25 -52 -52
l-53 -50 50 53 c46 48 55 57 55 49z m2795 -88 c27 -35 45 -60 39 -57 -5 4 -32
35 -59 69 -27 35 -45 60 -39 57 5 -4 32 -35 59 -69z m216 24 c-11 -21 -20 -35
-21 -31 0 12 33 78 38 74 2 -2 -6 -21 -17 -43z m-694 5 c-3 -8 -6 -5 -6 6 -1
11 2 17 5 13 3 -3 4 -12 1 -19z m-2030 -90 c-3 -8 -6 -5 -6 6 -1 11 2 17 5 13
3 -3 4 -12 1 -19z m2679 -15 c-31 -62 -74 -68 -110 -15 l-19 27 24 -21 c13
-12 29 -24 36 -28 12 -7 73 48 73 66 0 6 3 9 6 6 3 -4 -1 -19 -10 -35z m-3136
-18 c-24 -25 -46 -45 -49 -45 -3 0 15 20 39 45 24 25 46 45 49 45 3 0 -15 -20
-39 -45z m2507 13 c-3 -8 -6 -5 -6 6 -1 11 2 17 5 13 3 -3 4 -12 1 -19z
m-2040 -50 c-3 -8 -6 -5 -6 6 -1 11 2 17 5 13 3 -3 4 -12 1 -19z m1640 -40
c-3 -8 -6 -5 -6 6 -1 11 2 17 5 13 3 -3 4 -12 1 -19z m-2272 -38 c3 -5 1 -10
-4 -10 -6 0 -11 5 -11 10 0 6 2 10 4 10 3 0 8 -4 11 -10z m642 -22 c-3 -7 -5
-2 -5 12 0 14 2 19 5 13 2 -7 2 -19 0 -25z m2050 0 c-3 -8 -6 -5 -6 6 -1 11 2
17 5 13 3 -3 4 -12 1 -19z m-1492 -48 c9 -16 13 -30 11 -30 -3 0 -12 14 -21
30 -9 17 -13 30 -11 30 3 0 12 -13 21 -30z m1092 -47 c-3 -10 -5 -2 -5 17 0
19 2 27 5 18 2 -10 2 -26 0 -35z m410 0 c-3 -10 -5 -2 -5 17 0 19 2 27 5 18 2
-10 2 -26 0 -35z m-2050 -60 c-2 -16 -4 -5 -4 22 0 28 2 40 4 28 2 -13 2 -35
0 -50z m1414 -20 c13 -16 12 -17 -3 -4 -10 7 -18 15 -18 17 0 8 8 3 21 -13z
m646 -30 c-3 -10 -5 -4 -5 12 0 17 2 24 5 18 2 -7 2 -21 0 -30z m-410 -95 c-2
-18 -4 -6 -4 27 0 33 2 48 4 33 2 -15 2 -42 0 -60z m-1640 -15 c-3 -10 -5 -2
-5 17 0 19 2 27 5 18 2 -10 2 -26 0 -35z m2060 -205 c-2 -35 -3 -9 -3 57 0 66
1 94 3 63 2 -32 2 -86 0 -120z m-2050 110 c-3 -7 -5 -2 -5 12 0 14 2 19 5 13
2 -7 2 -19 0 -25z m-1320 -130 c-3 -8 -6 -5 -6 6 -1 11 2 17 5 13 3 -3 4 -12
1 -19z m-10 -60 c-3 -8 -6 -5 -6 6 -1 11 2 17 5 13 3 -3 4 -12 1 -19z m3370
-105 c-3 -10 -5 -4 -5 12 0 17 2 24 5 18 2 -7 2 -21 0 -30z m-1927 3 c0 -2 -8
-10 -17 -17 -16 -13 -17 -12 -4 4 13 16 21 21 21 13z m-1463 -38 c-3 -7 -5 -2
-5 12 0 14 2 19 5 13 2 -7 2 -19 0 -25z m553 -12 c0 -2 -8 -10 -17 -17 -16
-13 -17 -12 -4 4 13 16 21 21 21 13z m2090 -31 c13 -14 21 -25 18 -25 -2 0
-15 11 -28 25 -13 14 -21 25 -18 25 2 0 15 -11 28 -25z m737 -17 c-3 -8 -6 -5
-6 6 -1 11 2 17 5 13 3 -3 4 -12 1 -19z m-3390 -10 c-3 -8 -6 -5 -6 6 -1 11 2
17 5 13 3 -3 4 -12 1 -19z m503 9 c0 -1 -24 -25 -52 -52 l-53 -50 50 53 c46
48 55 57 55 49z m2201 -44 c13 -16 12 -17 -3 -4 -10 7 -18 15 -18 17 0 8 8 3
21 -13z m676 -25 c-3 -8 -6 -5 -6 6 -1 11 2 17 5 13 3 -3 4 -12 1 -19z m-3390
-20 c-3 -8 -6 -5 -6 6 -1 11 2 17 5 13 3 -3 4 -12 1 -19z m690 0 c-3 -8 -6 -5
-6 6 -1 11 2 17 5 13 3 -3 4 -12 1 -19z m10 -70 c-3 -7 -5 -2 -5 12 0 14 2 19
5 13 2 -7 2 -19 0 -25z m-317 19 c0 -1 -24 -25 -52 -52 l-53 -50 50 53 c46 48
55 57 55 49z m-393 -29 c-3 -8 -6 -5 -6 6 -1 11 2 17 5 13 3 -3 4 -12 1 -19z
m720 -70 c-3 -7 -5 -2 -5 12 0 14 2 19 5 13 2 -7 2 -19 0 -25z m2650 10 c-3
-8 -6 -5 -6 6 -1 11 2 17 5 13 3 -3 4 -12 1 -19z m-3370 -60 c-3 -7 -5 -2 -5
12 0 14 2 19 5 13 2 -7 2 -19 0 -25z m2520 0 c-3 -7 -5 -2 -5 12 0 14 2 19 5
13 2 -7 2 -19 0 -25z m-2297 -11 c0 -1 -28 -29 -62 -62 l-63 -60 60 63 c55 58
65 67 65 59z m507 -44 c-3 -10 -5 -2 -5 17 0 19 2 27 5 18 2 -10 2 -26 0 -35z
m-720 -35 c-3 -7 -5 -2 -5 12 0 14 2 19 5 13 2 -7 2 -19 0 -25z m2500 -80 c-2
-18 -4 -6 -4 27 0 33 2 48 4 33 2 -15 2 -42 0 -60z m-1770 -375 c-1 -76 -3
-14 -3 137 0 151 2 213 3 138 2 -76 2 -200 0 -275z m-684 375 c-2 -5 -10 -8
-18 -8 -8 0 -16 3 -18 8 -3 4 5 7 18 7 13 0 21 -3 18 -7z m1742 -48 c10 -11
16 -20 13 -20 -3 0 -13 9 -23 20 -10 11 -16 20 -13 20 3 0 13 -9 23 -20z
m-195 -64 c0 -2 -8 -10 -17 -17 -16 -13 -17 -12 -4 4 13 16 21 21 21 13z
m1670 -9 c0 -2 -10 -12 -22 -23 l-23 -19 19 23 c18 21 26 27 26 19z m-1760
-80 c0 -2 -10 -12 -22 -23 l-23 -19 19 23 c18 21 26 27 26 19z m987 -99 c-2
-18 -4 -4 -4 32 0 36 2 50 4 33 2 -18 2 -48 0 -65z m-10 -155 c-3 -10 -5 -4
-5 12 0 17 2 24 5 18 2 -7 2 -21 0 -30z m-10 -85 c-3 -8 -6 -5 -6 6 -1 11 2
17 5 13 3 -3 4 -12 1 -19z m-1730 -60 c-3 -8 -6 -5 -6 6 -1 11 2 17 5 13 3 -3
4 -12 1 -19z m20 -130 c-3 -8 -6 -5 -6 6 -1 11 2 17 5 13 3 -3 4 -12 1 -19z
m1448 -248 c10 -11 16 -20 13 -20 -3 0 -13 9 -23 20 -10 11 -16 20 -13 20 3 0
13 -9 23 -20z m85 -35 c-7 -8 -20 -15 -29 -15 -11 0 -8 5 9 14 33 19 35 19 20
1z m-1230 -39 c0 -2 -8 -10 -17 -17 -16 -13 -17 -12 -4 4 13 16 21 21 21 13z
m-80 -100 c0 -2 -8 -10 -17 -17 -16 -13 -17 -12 -4 4 13 16 21 21 21 13z m-64
-54 c-10 -2 -22 0 -28 6 -6 6 0 7 19 4 21 -5 23 -7 9 -10z"/>
</g>
</svg>
